<svg width="inherit" height="inherit" viewBox="0 0 65 64" xmlns="http://www.w3.org/2000/svg"><path d="m23.6 22.2 3.03 1.75v3.5L23.6 29.2l-3.03-1.75v-3.5zM20.06 49l3.54-3.54L27.14 49l-3.54 3.54zm3.54-14.7c.593.0 1.17.176 1.67.506.493.33.878.798 1.1 1.35.227.548.286 1.15.171 1.73-.116.582-.401 1.12-.821 1.54s-.954.705-1.54.821c-.582.116-1.19.0563-1.73-.171-.548-.227-1.02-.612-1.35-1.1-.33-.493-.506-1.07-.506-1.67.0-.796.316-1.56.879-2.12.563-.563 1.33-.879 2.12-.879zM10.3 11.2l6.42-4.89 1.21-.37h29l1.19.39 6.61 4.89.82 1.61v38L55 52.21l-4.83 5.11-1.46.63h-31.7l-1.37-.54-5.48-5.11-.64-1.47v-38zm3.21 25.4 4.47 4.94h.0561v4h-1.83l-2.7-3v7.39l4.26 4h30l3.7-3.91V42.3l-3.67 3.24h-18.6v-4h17.2l5.19-4.61v-7.44l-3.67 3.25h-18.7v-4h17.2l5.19-4.6v-6.92l-3.67 3.26h-31.6l-2.74-2.8v6.12l4.47 4.94h.0561v4h-1.83l-2.7-3zm32.7-26.7h-27.6l-4.07 3.11 3.4 3.48h28.4l4-3.56z"></path></svg>