<svg xmlns="http://www.w3.org/2000/svg" viewBox="0 0 107 22.7">
  <!-- Civitai -->
<path d="M20.8,1.7H3.7L1.5,4.1v15l2.3,2.3h17.1v-5.2H6.7V7h14.1V1.7z"/><path d="M76.1,1.7H56.6V7h7.2v14.3H69V7h7C76,7,76.1,1.7,76.1,1.7z M23.2,1.8v19.5h5.2V1.8C28.4,1.8,23.2,1.8,23.2,1.8z M30.8,1.8v19.5h7.6l8.3-8.3V1.8h-5.2v8.3l-5.4,6V1.8C36.1,1.8,30.8,1.8,30.8,1.8z M49.1,1.8v19.5h5.2V1.8C54.3,1.8,49.1,1.8,49.1,1.8z"/><path d="M100.3,1.8v19.5h5.2V1.8H100.3z M95.6,1.8H80.8l-2.3,2.3v17.2h5.2v-7.1h8.9v7.1h5.2V4.1C97.8,4.1,95.6,1.8,95.6,1.8z M92.7,8.9h-8.9V7h8.9V8.9z"/><path d="M46.7,16.2v5.1h-5.1"/>
</svg>
