<svg xmlns="http://www.w3.org/2000/svg" viewBox="0 0 310 112">
  <!-- Open.cx -->
<path d="M3.99359 89.6463H18.3486C19.3971 89.6798 20.3935 90.1115 21.1353 90.8537C21.8772 91.5959 22.3087 92.5929 22.3422 93.6419V108.004C22.3757 109.053 22.8072 110.05 23.549 110.793C24.2908 111.535 25.2872 111.966 26.3358 112H63.313C64.3615 111.966 65.3579 111.535 66.0997 110.793C66.8415 110.05 67.273 109.053 67.3065 108.004V93.6419C67.3402 92.5908 67.7734 91.5922 68.5178 90.8497C69.2622 90.1072 70.2616 89.6768 71.3123 89.6463H85.6064C86.6549 89.6128 87.6514 89.181 88.3932 88.4389C89.135 87.6967 89.5665 86.6997 89.6 85.6506V26.3494C89.5665 25.3003 89.135 24.3033 88.3932 23.5611C87.6514 22.819 86.6549 22.3872 85.6064 22.3537H71.2636C70.2109 22.3231 69.2097 21.891 68.465 21.1459C67.7203 20.4008 67.2885 19.3991 67.2578 18.3459V3.99565C67.2251 2.95467 66.8003 1.96452 66.0688 1.22356C65.3373 0.482606 64.3529 0.0455675 63.313 0L26.3358 0C25.2872 0.0335227 24.2908 0.465253 23.549 1.20744C22.8072 1.94963 22.3757 2.94657 22.3422 3.99565V18.3459C22.3117 19.3971 21.8815 20.3971 21.1394 21.1418C20.3973 21.8866 19.3992 22.32 18.3486 22.3537H3.99359C2.94505 22.3872 1.94862 22.819 1.20682 23.5611C0.465012 24.3033 0.0335054 25.3003 0 26.3494V85.6506C0.0335054 86.6997 0.465012 87.6967 1.20682 88.4389C1.94862 89.181 2.94505 89.6128 3.99359 89.6463ZM22.3422 85.6506V26.3494C22.3757 25.3003 22.8072 24.3033 23.549 23.5611C24.2908 22.819 25.2872 22.3872 26.3358 22.3537H63.313C64.3615 22.3872 65.3579 22.819 66.0997 23.5611C66.8415 24.3033 67.273 25.3003 67.3065 26.3494V85.6506C67.273 86.6997 66.8415 87.6967 66.0997 88.4389C65.3579 89.181 64.3615 89.6128 63.313 89.6463H26.3358C25.2872 89.6128 24.2908 89.181 23.549 88.4389C22.8072 87.6967 22.3757 86.6997 22.3422 85.6506Z"/><path d="M277.273 80.7185H265V32.3648H277.273V39.5789H279.026C280.13 36.8492 281.916 34.737 284.383 33.2422C286.851 31.7474 289.741 31 293.052 31C295.39 31 297.565 31.3899 299.578 32.1698C301.656 32.8848 303.474 34.0221 305.033 35.5819C306.591 37.1417 307.793 39.1239 308.637 41.5286C309.546 43.9333 310 46.793 310 50.1075V80.7185H297.728V53.2271C297.728 49.7826 296.883 47.0854 295.195 45.1357C293.572 43.1209 291.202 42.1136 288.085 42.1136C284.448 42.1136 281.721 43.3484 279.903 45.8181C278.15 48.2228 277.273 51.4723 277.273 55.5668V80.7185Z"/><path d="M227.632 60.5387C227.696 61.9685 228.02 63.3008 228.603 64.5356C229.251 65.7055 230.093 66.7454 231.13 67.6552C232.231 68.5001 233.462 69.1825 234.822 69.7025C236.247 70.1574 237.737 70.3849 239.291 70.3849C242.336 70.3849 244.668 69.8649 246.287 68.8251C247.907 67.7202 249.073 66.4204 249.785 64.9256L260.279 70.7748C259.696 72.0097 258.887 73.3095 257.85 74.6743C256.814 75.9742 255.453 77.1765 253.769 78.2814C252.15 79.3862 250.142 80.2961 247.745 81.011C245.413 81.7259 242.66 82.0834 239.486 82.0834C235.858 82.0834 232.555 81.4984 229.575 80.3286C226.595 79.1587 224.004 77.469 221.802 75.2592C219.664 73.0495 217.98 70.3524 216.749 67.1678C215.583 63.9832 215 60.3762 215 56.3467V55.7618C215 52.0573 215.615 48.6777 216.846 45.6231C218.142 42.5685 219.891 39.9688 222.093 37.8241C224.296 35.6794 226.854 34.0221 229.769 32.8523C232.749 31.6174 235.923 31 239.291 31C243.437 31 247 31.7474 249.98 33.2422C252.96 34.672 255.421 36.5243 257.364 38.799C259.308 41.0087 260.733 43.4784 261.64 46.208C262.547 48.8727 263 51.4723 263 54.007V60.5387H227.632ZM239.194 42.1136C236.085 42.1136 233.559 42.926 231.615 44.5507C229.672 46.1105 228.409 47.9303 227.826 50.01H250.563C250.174 47.7353 248.943 45.8506 246.87 44.3558C244.862 42.861 242.304 42.1136 239.194 42.1136Z"/><path d="M175.209 100.216H163V32.3648H175.209V39.3839H176.953C178.245 36.7193 180.119 34.672 182.574 33.2422C185.028 31.7474 188.161 31 191.973 31C194.815 31 197.496 31.5524 200.016 32.6573C202.599 33.7621 204.828 35.3869 206.702 37.5317C208.64 39.6114 210.158 42.1786 211.256 45.2332C212.419 48.2878 213 51.7648 213 55.6643V57.4191C213 61.3836 212.451 64.8931 211.353 67.9477C210.255 71.0023 208.769 73.602 206.895 75.7467C205.022 77.8264 202.793 79.4187 200.209 80.5236C197.69 81.5634 194.944 82.0834 191.973 82.0834C189.776 82.0834 187.871 81.8559 186.256 81.401C184.641 80.946 183.22 80.3286 181.992 79.5487C180.829 78.7688 179.828 77.8914 178.988 76.9165C178.213 75.8767 177.535 74.8043 176.953 73.6995H175.209V100.216ZM188 70.3849C191.811 70.3849 194.88 69.215 197.205 66.8753C199.596 64.4706 200.791 61.2211 200.791 57.1266V55.9568C200.791 51.8623 199.596 48.6452 197.205 46.3055C194.88 43.9008 191.811 42.6985 188 42.6985C184.189 42.6985 181.088 43.9333 178.698 46.403C176.372 48.8077 175.209 51.9923 175.209 55.9568V57.1266C175.209 61.0911 176.372 64.3082 178.698 66.7779C181.088 69.1825 184.189 70.3849 188 70.3849Z"/><path d="M161 57.1266C161 61.1561 160.322 64.7306 158.965 67.8502C157.609 70.9048 155.767 73.5045 153.442 75.6492C151.116 77.7289 148.435 79.3212 145.399 80.4261C142.428 81.5309 139.295 82.0834 136 82.0834C132.705 82.0834 129.54 81.5309 126.504 80.4261C123.532 79.3212 120.884 77.7289 118.558 75.6492C116.233 73.5045 114.391 70.9048 113.035 67.8502C111.678 64.7306 111 61.1561 111 57.1266V55.9568C111 51.9923 111.678 48.4827 113.035 45.4281C114.391 42.3085 116.233 39.6764 118.558 37.5317C120.884 35.3869 123.532 33.7621 126.504 32.6573C129.54 31.5524 132.705 31 136 31C139.295 31 142.428 31.5524 145.399 32.6573C148.435 33.7621 151.116 35.3869 153.442 37.5317C155.767 39.6764 157.609 42.3085 158.965 45.4281C160.322 48.4827 161 51.9923 161 55.9568V57.1266ZM136 70.3849C137.744 70.3849 139.391 70.0924 140.942 69.5075C142.492 68.9226 143.849 68.0777 145.012 66.9728C146.174 65.868 147.079 64.5356 147.725 62.9758C148.435 61.3511 148.791 59.5313 148.791 57.5166V55.5668C148.791 53.5521 148.435 51.7648 147.725 50.205C147.079 48.5802 146.174 47.2154 145.012 46.1105C143.849 45.0057 142.492 44.1608 140.942 43.5759C139.391 42.9909 137.744 42.6985 136 42.6985C134.256 42.6985 132.609 42.9909 131.058 43.5759C129.508 44.1608 128.151 45.0057 126.988 46.1105C125.826 47.2154 124.889 48.5802 124.178 50.205C123.532 51.7648 123.209 53.5521 123.209 55.5668V57.5166C123.209 59.5313 123.532 61.3511 124.178 62.9758C124.889 64.5356 125.826 65.868 126.988 66.9728C128.151 68.0777 129.508 68.9226 131.058 69.5075C132.609 70.0924 134.256 70.3849 136 70.3849Z"/>
</svg>
