<svg xmlns="http://www.w3.org/2000/svg" viewBox="0 0 82 31">
  <!-- Tailor -->
<path d="M2.32625 11.9233V11.8777C2.32625 11.604 2.32625 11.3121 2.35361 11.0658C2.38098 10.7648 2.45396 10.4181 2.66378 10.0623C2.8736 9.70654 3.13815 9.46935 3.38446 9.29602C3.59428 9.15006 3.84971 9.0041 4.07777 8.86726C4.0869 8.86726 4.10514 8.84902 4.11426 8.84902L10.7737 5.04492C10.8011 5.02668 10.8285 5.01755 10.8558 4.99931C10.9014 4.97194 10.9562 4.94457 11.0018 4.91721C11.0018 4.58646 10.9927 3.92285 10.9927 3.92285C10.9562 3.12007 10.8376 2.65482 10.4727 2.445C9.93444 2.13483 9.21376 2.54535 7.76328 3.36637L1.0947 7.16135C0.556475 7.46239 0.291921 7.61748 0.145961 7.87291C-1.26204e-08 8.12834 0 8.42938 0 9.04972V17.3786C0 19.0571 0 19.8964 0.547352 20.2157C0.68419 20.2978 0.830151 20.3252 0.994356 20.3161C1.33189 20.2978 1.75153 20.1154 2.32625 19.7961V11.9233Z"/><path fill-rule="evenodd" clip-rule="evenodd" d="M15.0138 8.11723C14.9865 8.13547 14.9682 8.14459 14.9409 8.16284C14.9135 8.18108 14.8952 8.19021 14.8679 8.20845C14.8496 8.20845 14.8405 8.2267 14.8314 8.2267C14.8223 8.2267 14.804 8.24494 14.7949 8.24494L12.6967 9.43999L11.3283 10.2154L8.12632 12.0399C8.12632 12.0399 8.11719 12.0399 8.10807 12.049C8.10807 12.049 8.09895 12.049 8.08983 12.0582C7.85264 12.195 7.60633 12.3318 7.39651 12.4869C7.15021 12.6602 6.88565 12.8974 6.67583 13.2532C6.46602 13.609 6.40216 13.9648 6.36567 14.2567C6.3383 14.5121 6.3383 14.804 6.3383 15.0686V17.9604V22.987C5.76358 23.2971 5.34394 23.4887 5.00641 23.5069C4.8422 23.5161 4.68712 23.4796 4.55028 23.4066C4.03942 23.1147 4.01205 22.3666 4.00293 20.907V20.5695V19.1829V12.2406C4.00293 11.6203 4.00293 11.3192 4.14889 11.0638C4.29485 10.8084 4.5594 10.6624 5.08851 10.3614H5.09763L11.3101 6.8127L11.7571 6.55727L11.7845 6.53903C12.122 6.34745 12.4139 6.18325 12.6693 6.04641C13.5269 5.58116 14.0468 5.39871 14.4574 5.64502C14.8314 5.86396 14.9409 6.32009 14.9773 7.12287C14.9773 7.12287 15.0138 8.00253 15.0138 8.11723Z"/><path d="M19.0268 11.4421C19.0268 11.2505 19.0268 11.068 19.0268 10.8947C19.0268 10.7214 19.0268 10.5663 19.0177 10.4203C18.9812 9.61756 18.8626 9.15231 18.4977 8.94249C18.0872 8.7053 17.5672 8.88775 16.7097 9.34388C16.436 9.48984 16.135 9.66317 15.7883 9.85474L15.3413 10.1102L13.0151 11.4329L11.6467 12.2084L9.12888 13.6406C8.59065 13.9416 8.3261 14.0967 8.18014 14.3522C8.03418 14.6076 8.03418 14.9086 8.03418 15.529V24.1954C8.03418 25.655 8.07067 26.403 8.58153 26.6949C8.71837 26.7771 8.86433 26.8044 9.02854 26.7953C9.09239 26.7953 9.15625 26.7862 9.22923 26.7679C9.71273 26.6676 10.3513 26.2936 11.3 25.7371L17.9686 21.8418C18.4977 21.5316 18.7532 21.3856 18.8991 21.1302C19.0268 20.9113 19.0451 20.6467 19.0451 20.1815L19.0268 11.4421Z"/><path d="M75.0251 23.6852V14.4938C75.0251 13.3522 75.3441 12.4625 75.982 11.8246C76.6368 11.1698 77.5349 10.8425 78.6765 10.8425H82.0005V13.5621H79.2305C78.9283 13.5621 78.6765 13.6628 78.475 13.8643C78.2736 14.0489 78.1729 14.3008 78.1729 14.6197V23.6852H75.0251Z"/><path d="M66.9148 23.9874C65.5886 23.9874 64.405 23.6936 63.3642 23.106C62.3401 22.5016 61.5259 21.6958 60.9216 20.6885C60.334 19.6645 60.0402 18.5229 60.0402 17.2638C60.0402 16.0047 60.334 14.8715 60.9216 13.8643C61.5259 12.8402 62.3401 12.0344 63.3642 11.4468C64.405 10.8425 65.5886 10.5403 66.9148 10.5403C68.2411 10.5403 69.4162 10.8425 70.4403 11.4468C71.4811 12.0344 72.2953 12.8318 72.8829 13.8391C73.4873 14.8464 73.7895 15.9879 73.7895 17.2638C73.7895 18.5229 73.4873 19.6645 72.8829 20.6885C72.2953 21.6958 71.4811 22.5016 70.4403 23.106C69.4162 23.6936 68.2411 23.9874 66.9148 23.9874ZM66.9148 21.2929C67.6535 21.2929 68.2998 21.1166 68.8538 20.7641C69.4078 20.3948 69.8359 19.9079 70.1381 19.3035C70.4403 18.6992 70.5914 18.0193 70.5914 17.2638C70.5914 16.5084 70.4403 15.8285 70.1381 15.2241C69.8359 14.6197 69.4078 14.1413 68.8538 13.7887C68.2998 13.4194 67.6535 13.2347 66.9148 13.2347C66.1594 13.2347 65.5046 13.4194 64.9506 13.7887C64.4134 14.1413 63.9937 14.6197 63.6916 15.2241C63.3894 15.8285 63.2383 16.5084 63.2383 17.2638C63.2383 18.0193 63.3894 18.6992 63.6916 19.3035C63.9937 19.9079 64.4134 20.3948 64.9506 20.7641C65.5046 21.1166 66.1594 21.2929 66.9148 21.2929Z"/><path d="M55.5385 23.6852V5.30246H58.7115V23.6852H55.5385Z"/><path d="M50.3066 23.6852V10.8425H53.5047V23.6852H50.3066ZM51.9183 9.18046C51.3643 9.18046 50.8858 8.9874 50.4829 8.60128C50.0968 8.19837 49.9037 7.71991 49.9037 7.16591C49.9037 6.61191 50.0968 6.14185 50.4829 5.75573C50.8858 5.35282 51.3643 5.15137 51.9183 5.15137C52.4555 5.15137 52.9255 5.35282 53.3284 5.75573C53.7314 6.14185 53.9328 6.61191 53.9328 7.16591C53.9328 7.71991 53.7314 8.19837 53.3284 8.60128C52.9255 8.9874 52.4555 9.18046 51.9183 9.18046Z"/><path d="M40.6457 23.9874C39.4537 23.9874 38.4129 23.6852 37.5231 23.0808C36.6502 22.4765 35.9702 21.6706 35.4834 20.6634C35.0133 19.6393 34.7783 18.5145 34.7783 17.289C34.7783 16.0299 35.0469 14.8883 35.5841 13.8643C36.1213 12.8402 36.902 12.0344 37.926 11.4468C38.9501 10.8425 40.1672 10.5403 41.5774 10.5403C43.0044 10.5403 44.2131 10.8425 45.2036 11.4468C46.1941 12.0512 46.9495 12.8654 47.4699 13.8895C47.9904 14.8967 48.2506 16.0215 48.2506 17.2638V23.6852H45.0777V21.4188H45.0273C44.7755 21.8889 44.4481 22.317 44.0452 22.7031C43.6591 23.0892 43.189 23.3998 42.635 23.6348C42.081 23.8698 41.4179 23.9874 40.6457 23.9874ZM41.527 21.2929C42.2489 21.2929 42.8701 21.1166 43.3905 20.7641C43.9109 20.3948 44.3138 19.9079 44.5992 19.3035C44.8846 18.6824 45.0273 17.9941 45.0273 17.2386C45.0273 16.4832 44.8846 15.8117 44.5992 15.2241C44.3306 14.6197 43.9277 14.1413 43.3905 13.7887C42.8701 13.4194 42.2489 13.2347 41.527 13.2347C40.7884 13.2347 40.1504 13.4194 39.6132 13.7887C39.0928 14.1413 38.6899 14.6197 38.4045 15.2241C38.1191 15.8285 37.9764 16.5084 37.9764 17.2638C37.9764 18.0025 38.1107 18.6824 38.3793 19.3035C38.6647 19.9079 39.076 20.3948 39.6132 20.7641C40.1504 21.1166 40.7884 21.2929 41.527 21.2929Z"/><path d="M31.2904 23.6852C30.1488 23.6852 29.2507 23.3578 28.596 22.7031C27.958 22.0484 27.6391 21.1586 27.6391 20.0338V7.61919H30.812V19.9079C30.812 20.2269 30.9043 20.4871 31.089 20.6885C31.2904 20.8732 31.5506 20.9655 31.8696 20.9655H34.5892V23.6852H31.2904ZM25.4482 13.5621V10.8425H34.6144V13.5621H25.4482Z"/>
</svg>
